<?xml version="1.0" encoding="iso-8859-1"?>
<!-- Generator: Adobe Illustrator 19.0.0, SVG Export Plug-In . SVG Version: 6.00 Build 0)  -->
<svg version="1.1" id="Layer_1" xmlns="http://www.w3.org/2000/svg" xmlns:xlink="http://www.w3.org/1999/xlink" x="0px" y="0px"
	 viewBox="0 0 490 490" style="enable-background:new 0 0 490 490;" xml:space="preserve">
<g>
			<polygon points="339.712,475 115.712,475 115.712,459 100.712,459 100.712,490 354.712,490 354.712,459 339.712,459 			"/>
			<path d="M376.972,52.854c0-14.329-5.657-27.696-15.928-37.638C350.908,5.403,337.411,0,323.04,0H88.097
				C63.208,0,43.712,17.408,43.712,39.632v207.982c0,22.36,20.191,41.261,44.146,41.385L88.097,289v-0.001
				c4.417-0.023,8.652-0.69,12.615-1.914V452h254V95.458C368.276,86.089,376.972,70.644,376.972,52.854z M339.712,437h-224
				c0,0,0-158.251,0-158.251c8.634-7.529,14-18.599,14-31.136V143.622c0-6.593,5.051-11.758,11.5-11.758
				c6.449,0,11.5,5.165,11.5,11.758v19.258c0,23.224,19.165,42.119,42.723,42.119h0.695c23.48,0,42.582-18.894,42.582-42.119
				v-34.664l-0.018-0.522c-0.006-0.082-0.41-8.452,5.593-14.82c5.039-5.346,13.383-8.005,24.831-7.874h70.594V437z M323.491,90
				h-54.293c-15.769-0.164-27.797,4.067-35.826,12.585c-9.77,10.364-9.75,23.431-9.66,25.798v34.498
				c0,14.953-12.374,27.119-27.582,27.119h-0.695c-15.286,0-27.723-12.166-27.723-27.119v-19.258
				c0-14.754-11.888-26.758-26.5-26.758c-14.612,0-26.5,12.004-26.5,26.758v103.991c0,14.758-11.735,26.326-26.738,26.386
				c-15.874-0.062-29.262-12.12-29.262-26.386V39.632C58.712,24.214,73.653,15,88.097,15H323.04
				c21.831,0,38.932,16.627,38.931,37.854C361.971,74.03,345.429,90,323.491,90z"/>
			<path d="M401.462,105.109h-39.908v15.406h39.908c16.222,0,29.419,13.197,29.419,29.419v179.955
				c0,16.222-13.197,29.419-29.419,29.419h-39.908v15.406h39.908c24.717,0,44.826-20.109,44.826-44.825V149.934
				C446.288,125.217,426.179,105.109,401.462,105.109z"/>
			<rect x="129.712" y="405" width="146" height="15"/>
			<rect x="299.712" y="405" width="23" height="15"/>
			<polygon points="191.712,376 175.712,376 175.712,205 160.712,205 160.712,391 191.712,391 			"/>
			<polygon points="261.712,128 261.712,391 293.712,391 293.712,376 276.712,376 276.712,128 			"/>
			<path d="M91.948,70h15.406c0-14,12.358-26.516,27.358-26.516V28.078C110.712,28.078,91.948,47,91.948,70z"/>

</g>

</svg>
