<?xml version="1.0" standalone="no"?>
<!DOCTYPE svg PUBLIC "-//W3C//DTD SVG 20010904//EN"
 "http://www.w3.org/TR/2001/REC-SVG-20010904/DTD/svg10.dtd">
<svg version="1.0" xmlns="http://www.w3.org/2000/svg"
 width="645.000000pt" height="578.000000pt" viewBox="0 0 645.000000 578.000000"
 preserveAspectRatio="xMidYMid meet">

<g transform="translate(0.000000,578.000000) scale(0.100000,-0.100000)"
fill="#F7F7F7" stroke="none">
<path d="M2890 5604 c-25 -11 -61 -47 -87 -87 -36 -57 -76 -77 -155 -77 -69 0
-85 8 -109 52 -10 18 -18 20 -76 16 -59 -4 -67 -7 -99 -41 -20 -20 -43 -37
-52 -37 -34 0 -89 20 -122 45 -67 49 -137 25 -155 -55 -3 -16 -17 -36 -31 -45
-22 -14 -25 -22 -22 -66 4 -59 22 -66 26 -10 2 28 10 44 26 55 14 9 26 29 30
50 6 34 29 66 45 66 4 0 29 -14 55 -32 56 -36 147 -61 181 -48 13 5 31 22 41
38 28 48 112 58 134 16 21 -38 45 -47 125 -46 89 1 145 22 169 63 10 17 32 46
48 65 27 30 35 34 82 34 72 0 126 -17 161 -50 17 -16 43 -34 58 -39 37 -14
274 -15 310 -2 39 15 45 14 52 -9 19 -59 97 -69 155 -20 19 16 47 34 62 39 26
9 27 9 33 -37 11 -77 23 -115 50 -154 21 -31 32 -38 58 -38 18 0 43 7 55 16
18 12 22 13 22 1 0 -34 -31 -113 -51 -128 -26 -19 -18 -39 15 -39 33 0 53 35
67 115 8 50 8 73 0 91 -9 20 -8 31 4 54 22 42 43 50 139 50 l86 0 0 -99 c0
-185 15 -196 232 -186 81 4 148 5 148 1 0 -3 -12 -31 -26 -63 -35 -76 -29
-145 16 -185 33 -30 71 -36 89 -14 9 11 6 15 -18 19 -65 13 -86 79 -52 161 27
65 27 102 1 116 -12 6 -78 9 -169 8 -110 -2 -153 0 -163 10 -8 8 -14 49 -16
115 -2 56 -8 114 -14 130 -10 27 -11 27 -107 27 -62 -1 -105 -6 -121 -14 -13
-8 -40 -43 -60 -77 -28 -51 -41 -65 -63 -67 -23 -3 -29 3 -51 50 -14 29 -28
80 -33 113 l-8 60 -41 -1 c-29 0 -57 -10 -91 -32 -65 -42 -86 -41 -114 4 -21
35 -23 36 -63 28 -23 -4 -105 -8 -183 -9 l-142 0 -33 32 c-18 18 -50 39 -71
48 -41 17 -152 29 -177 19z"/>
<path d="M3084 5434 c-24 -56 4 -164 43 -164 13 0 14 6 8 38 -5 20 -9 64 -11
97 -2 70 -18 82 -40 29z"/>
<path d="M2855 5423 c-3 -21 -9 -57 -14 -81 -7 -35 -6 -45 7 -49 26 -11 42 26
42 99 0 53 -3 68 -15 68 -9 0 -16 -14 -20 -37z"/>
<path d="M2210 5340 c0 -59 61 -145 76 -106 6 17 -47 129 -63 134 -9 2 -13 -7
-13 -28z"/>
<path d="M1795 5271 c-54 -25 -73 -49 -84 -105 -13 -71 -35 -87 -128 -96 -43
-4 -99 -17 -124 -28 -53 -23 -63 -46 -53 -122 11 -84 4 -96 -73 -114 -38 -9
-86 -17 -108 -18 l-40 -3 -3 -85 c-1 -47 -8 -96 -14 -108 -11 -22 -17 -23 -64
-17 -68 8 -75 -2 -83 -124 -9 -129 -23 -151 -91 -151 -31 0 -54 -6 -64 -16
-22 -21 -20 -78 4 -142 11 -29 20 -68 20 -87 0 -43 -23 -55 -104 -55 -72 0
-115 -16 -122 -46 -10 -37 3 -85 36 -134 16 -25 30 -53 30 -63 0 -10 -29 -47
-65 -83 -88 -88 -123 -160 -97 -201 4 -7 24 -19 45 -28 20 -8 37 -21 37 -28 0
-19 -55 -93 -112 -153 -63 -66 -68 -105 -18 -144 87 -65 93 -75 88 -143 -4
-65 -26 -120 -79 -201 -35 -52 -52 -112 -40 -135 5 -8 28 -22 52 -30 l44 -16
3 -61 3 -61 -52 -49 c-74 -71 -129 -158 -129 -205 0 -35 3 -39 38 -48 20 -6
43 -11 50 -11 20 0 193 -91 214 -112 28 -28 22 -62 -21 -113 -46 -56 -78 -144
-62 -173 13 -24 51 -39 112 -45 86 -8 153 -89 135 -164 -9 -37 -7 -96 4 -107
4 -4 39 -9 77 -10 111 -3 150 -42 130 -130 -9 -42 -8 -49 9 -67 12 -11 45 -24
84 -30 36 -6 73 -18 83 -27 22 -20 35 -67 46 -183 9 -87 13 -96 41 -122 27
-24 38 -27 99 -27 62 0 72 -3 99 -28 26 -24 52 -83 52 -118 0 -20 60 -94 76
-94 8 0 32 11 52 25 27 19 50 25 89 25 66 0 83 -21 83 -100 0 -118 48 -140
144 -65 32 25 66 45 75 45 24 -1 49 -41 72 -114 20 -67 46 -96 84 -96 30 0
173 47 202 65 52 34 173 -20 186 -83 8 -38 32 -62 62 -62 43 0 132 40 168 75
20 19 42 35 50 35 8 0 22 -20 31 -45 26 -66 57 -87 125 -83 47 3 56 6 59 23 7
47 13 63 30 83 11 12 29 22 40 22 26 0 99 -33 132 -60 30 -24 158 -59 215 -60
23 0 54 9 73 20 31 19 32 21 32 93 0 80 -5 73 70 105 91 40 177 42 219 6 32
-27 79 -44 122 -44 32 0 69 38 69 72 0 63 11 83 68 123 53 37 59 39 127 36 57
-1 76 2 93 16 26 23 31 62 12 98 -13 25 -13 28 5 41 26 19 38 18 95 -11 61
-31 101 -32 134 -2 19 17 26 38 35 102 17 115 25 125 112 125 65 0 73 2 100
29 36 37 38 73 3 100 -14 11 -30 22 -37 24 -8 3 -6 13 9 33 14 20 47 39 104
62 112 44 142 67 138 101 -2 15 -12 30 -25 36 -13 5 -23 15 -23 22 0 27 63 81
137 117 43 21 89 43 102 49 14 7 33 27 44 44 24 41 16 82 -25 129 -26 29 -30
41 -25 72 7 55 53 147 96 192 20 21 46 49 59 62 33 36 42 77 26 123 -7 21 -20
42 -28 47 -23 13 -20 49 10 142 40 125 40 124 81 135 21 6 49 18 62 27 21 15
23 23 18 67 -5 59 -27 82 -94 100 l-43 11 0 58 c0 65 8 72 103 98 110 30 99
108 -20 140 -26 7 -52 17 -57 21 -15 13 46 119 86 152 81 65 20 110 -96 71
-26 -9 -49 -14 -52 -11 -10 10 -16 86 -10 121 5 28 15 40 49 58 72 40 55 88
-40 112 -59 15 -64 31 -26 84 16 21 37 59 48 83 22 50 44 73 98 100 45 23 54
41 38 75 -14 32 -83 63 -169 75 -93 14 -136 35 -179 87 l-36 44 36 34 c21 18
37 40 37 48 0 8 -12 36 -26 62 -14 25 -35 78 -45 117 -25 90 -64 157 -91 157
-11 0 -36 -9 -54 -21 -65 -39 -106 -10 -209 150 -28 42 -30 55 -35 158 -6 132
-12 142 -70 123 -56 -18 -63 -34 -12 -25 l40 6 3 -113 c4 -123 14 -148 93
-249 83 -107 132 -130 186 -90 16 11 35 21 42 21 17 0 52 -77 73 -159 9 -36
25 -76 36 -89 19 -25 26 -62 10 -62 -16 0 -61 -49 -61 -68 0 -28 75 -115 122
-142 24 -13 68 -26 108 -30 70 -8 160 -36 160 -51 0 -5 -17 -17 -37 -28 -49
-24 -64 -43 -101 -116 -16 -33 -40 -79 -53 -102 -22 -40 -23 -45 -9 -70 11
-19 31 -33 65 -44 27 -8 50 -20 52 -25 2 -5 -13 -18 -32 -28 -44 -24 -60 -75
-51 -160 9 -91 28 -101 120 -70 26 9 49 14 52 12 2 -3 -11 -22 -31 -42 -41
-43 -75 -117 -78 -166 -2 -31 1 -35 23 -38 49 -5 131 -34 127 -45 -2 -6 -31
-19 -65 -29 -77 -23 -127 -69 -117 -107 24 -88 -1 -145 -43 -103 -12 12 -29
22 -37 22 -12 0 -15 19 -15 114 0 279 -54 561 -162 851 -41 109 -58 143 -58
114 0 -40 32 -201 50 -254 87 -251 129 -570 110 -835 -6 -80 -14 -162 -19
-182 -5 -21 -5 -38 0 -38 15 0 61 89 66 130 6 43 14 47 53 25 29 -17 59 -19
80 -5 13 9 13 11 0 19 -28 18 -3 21 46 5 52 -17 84 -45 84 -74 0 -13 -15 -23
-52 -36 -29 -9 -57 -23 -61 -30 -5 -9 -26 -14 -52 -14 -33 0 -45 -4 -45 -15 0
-8 -16 -21 -35 -29 -69 -29 -32 -57 42 -32 25 9 49 14 51 11 3 -3 -4 -33 -16
-68 -12 -34 -24 -80 -28 -102 -5 -35 -2 -44 25 -72 46 -49 41 -72 -33 -153
-79 -86 -118 -163 -124 -241 -4 -54 -2 -61 27 -94 17 -20 31 -45 31 -56 0 -32
-29 -67 -63 -75 -17 -3 -47 -15 -67 -25 -34 -18 -39 -18 -68 -4 -48 24 -128
31 -135 12 -8 -22 11 -34 71 -42 50 -7 52 -8 33 -22 -11 -7 -32 -34 -47 -59
-30 -51 -27 -89 8 -100 l22 -7 -20 -16 c-12 -9 -49 -25 -84 -36 -81 -25 -150
-86 -150 -132 0 -30 26 -63 48 -63 19 0 14 -38 -7 -50 -11 -5 -48 -10 -84 -10
-53 0 -67 -4 -84 -23 -25 -27 -53 -120 -53 -176 0 -55 -27 -62 -102 -27 -74
35 -109 34 -147 -5 -35 -34 -39 -60 -14 -84 12 -13 14 -21 6 -34 -8 -13 -23
-15 -74 -13 -58 3 -69 0 -123 -32 -32 -20 -62 -36 -66 -36 -13 0 -37 35 -49
72 -14 42 -28 55 -43 40 -17 -17 1 -83 31 -112 25 -26 27 -33 23 -89 -5 -75
-22 -90 -77 -66 -20 8 -48 24 -62 35 -40 31 -125 27 -206 -9 -36 -16 -68 -27
-71 -24 -3 4 -6 2 -6 -4 0 -6 -13 -16 -30 -22 -29 -10 -30 -11 -30 -79 0 -67
-1 -70 -29 -82 -42 -17 -188 21 -255 67 -50 34 -93 41 -165 27 -34 -7 -71 -55
-71 -93 0 -16 -6 -21 -26 -21 -41 0 -62 17 -75 60 l-12 40 -65 0 c-51 0 -70
-4 -86 -19 -25 -24 -124 -64 -137 -56 -5 4 -9 13 -9 21 0 52 -69 112 -153 133
-44 11 -51 10 -110 -18 -83 -39 -163 -58 -185 -45 -9 6 -24 37 -34 70 -10 33
-33 76 -51 99 -34 39 -35 39 -73 27 -21 -6 -61 -30 -88 -52 -26 -22 -52 -40
-57 -40 -5 0 -9 25 -9 55 0 108 -46 165 -132 165 -49 0 -118 -24 -118 -41 0
-5 -6 -9 -14 -9 -16 0 -37 43 -55 110 -14 53 -25 68 -68 98 -25 18 -45 22
-100 22 -95 0 -100 7 -117 152 -18 158 -39 189 -143 203 -74 10 -86 21 -75 70
11 51 -1 93 -33 120 l-27 20 36 13 c20 7 36 18 36 24 0 11 -37 8 -154 -11 -42
-7 -73 -8 -79 -2 -5 5 7 23 31 45 41 38 99 133 88 144 -4 3 -28 -16 -55 -42
l-48 -48 -7 39 c-10 53 -30 79 -84 114 -34 21 -58 29 -92 29 -25 0 -55 6 -65
14 -18 13 -18 15 -1 60 10 26 36 67 57 92 45 53 52 104 20 146 -26 32 -204
124 -259 133 -38 6 -42 9 -36 28 11 38 55 98 114 157 63 63 68 74 60 167 -6
68 -20 86 -74 97 -25 5 -27 9 -21 33 3 16 20 48 36 73 64 96 83 149 83 226 0
84 -15 113 -80 152 -24 15 -44 34 -44 42 0 9 24 39 52 67 29 28 68 75 86 106
42 69 37 98 -19 124 -24 12 -39 25 -39 37 0 30 35 79 105 144 36 33 65 69 65
79 0 11 -18 55 -40 98 -44 86 -49 115 -22 115 56 1 169 22 189 35 18 12 23 25
23 54 0 49 -21 141 -32 141 -4 0 -8 18 -8 40 l0 40 48 0 c88 0 110 32 121 178
4 50 10 95 14 98 3 3 23 -8 44 -24 42 -33 112 -57 126 -43 6 6 -8 18 -34 32
-39 20 -42 23 -23 30 30 10 44 59 44 145 l0 74 41 0 c40 0 131 22 156 38 7 4
16 25 21 47 10 51 25 54 52 10 34 -55 56 -25 25 35 -12 23 -22 30 -45 30 -28
0 -30 2 -30 38 0 36 3 40 48 60 30 14 68 22 100 22 92 0 152 48 152 120 0 36
46 90 77 90 10 0 36 -14 57 -30 22 -17 48 -30 58 -30 32 0 58 19 58 42 0 17
-3 19 -12 10 -20 -20 -46 -14 -94 23 -25 19 -49 35 -52 35 -4 0 -25 -9 -47
-19z"/>
<path d="M2068 5284 c-4 -3 0 -20 7 -37 7 -18 10 -47 8 -64 -5 -28 -2 -33 15
-33 23 0 32 18 32 64 0 49 -39 93 -62 70z"/>
<path d="M4168 5180 c-46 -36 -65 -141 -27 -148 12 -2 18 8 23 39 4 22 13 54
22 71 8 16 14 36 12 45 -2 12 -8 11 -30 -7z"/>
<path d="M3000 5115 c-63 -19 -221 -62 -350 -96 -129 -34 -327 -88 -440 -121
-113 -33 -243 -67 -290 -77 -71 -15 -85 -21 -85 -37 0 -17 7 -19 66 -17 37 1
147 22 250 47 101 24 256 61 344 81 366 82 649 166 665 195 13 24 13 26 -6 44
-20 21 -19 21 -154 -19z"/>
<path d="M1597 5004 c-19 -19 40 -64 83 -64 27 0 22 21 -9 36 -13 7 -28 17
-34 23 -12 12 -30 14 -40 5z"/>
<path d="M4060 4985 c0 -3 17 -15 38 -28 34 -22 61 -37 202 -114 25 -14 51
-30 58 -35 7 -6 15 -9 18 -6 13 14 -65 70 -178 126 -122 61 -138 67 -138 57z"/>
<path d="M2725 4850 c3 -47 8 -115 11 -151 6 -63 5 -66 -17 -72 -49 -13 -57
-9 -64 36 -18 126 -29 177 -37 177 -11 0 1 -471 12 -483 4 -5 16 -7 26 -5 17
3 19 13 16 114 l-4 111 32 5 c26 4 33 1 41 -19 5 -13 9 -41 10 -61 2 -60 23
-134 41 -146 14 -8 21 -7 34 6 15 15 15 21 0 79 -8 35 -25 125 -36 200 -11 75
-25 151 -30 170 -6 19 -10 45 -10 60 0 14 -7 34 -16 45 -14 17 -15 12 -9 -66z"/>
<path d="M3378 4831 l-33 -29 -4 -166 c-3 -187 0 -216 29 -216 23 0 34 43 28
116 -2 38 0 49 12 49 16 0 25 -16 75 -127 29 -66 38 -78 59 -78 51 0 39 33
-84 226 -11 18 -10 25 9 51 40 54 40 144 1 183 -28 28 -54 25 -92 -9z m73 -38
c14 -36 -5 -104 -37 -134 -21 -20 -24 -20 -30 -5 -11 29 4 127 22 147 23 26
33 24 45 -8z"/>
<path d="M2969 4818 l-76 -20 -7 -105 c-11 -181 -8 -217 14 -241 39 -41 147
-24 184 30 36 52 6 71 -50 33 -25 -17 -49 -25 -69 -23 -30 3 -30 4 -33 66 -3
61 -3 62 23 62 35 0 65 17 65 36 0 13 -9 15 -44 13 -44 -4 -44 -4 -50 31 -11
66 -9 70 32 70 60 0 112 18 112 39 0 28 -18 30 -101 9z"/>
<path d="M2269 4813 c-15 -2 -49 -28 -81 -61 -54 -55 -56 -60 -83 -169 l-27
-111 5 -329 c4 -315 5 -332 30 -423 31 -111 32 -153 11 -376 -18 -193 -14
-417 10 -564 20 -122 20 -205 1 -305 -9 -44 -18 -123 -22 -175 -9 -156 37
-308 194 -640 25 -52 36 -87 34 -115 -1 -22 6 -98 15 -170 12 -95 16 -204 15
-405 -1 -207 2 -282 12 -305 l13 -29 18 44 c15 37 19 85 24 270 3 149 9 227
16 232 20 14 47 8 120 -26 91 -43 157 -62 261 -75 265 -35 427 -40 570 -16 49
8 93 11 96 7 10 -10 22 -266 20 -397 -2 -121 3 -155 23 -155 16 0 26 63 26
166 0 40 5 76 10 79 6 4 10 63 10 144 0 75 4 141 9 146 5 6 12 51 15 100 14
220 14 217 61 264 70 68 121 183 155 346 33 156 65 290 104 440 15 55 28 134
30 176 3 48 11 92 24 120 26 58 47 134 67 243 9 49 28 121 41 160 51 147 85
274 99 366 9 52 29 133 46 180 64 180 78 256 80 431 1 126 -7 147 -73 181 -33
18 -40 18 -99 4 -52 -12 -70 -21 -98 -53 -44 -49 -84 -139 -105 -233 -17 -74
-129 -377 -167 -451 -10 -21 -25 -64 -33 -96 -8 -32 -24 -79 -35 -105 -34 -74
-71 -102 -71 -53 0 13 -12 55 -26 92 -14 37 -36 99 -50 137 -28 80 -50 107
-112 137 -35 17 -55 21 -102 16 -32 -3 -69 -12 -82 -21 -12 -9 -25 -16 -29
-16 -3 0 -9 24 -12 54 -10 100 -69 178 -146 191 -51 8 -158 -12 -195 -38 -36
-25 -60 -81 -77 -174 l-13 -73 -35 0 c-19 0 -43 -7 -53 -16 -22 -21 -21 -22
-43 116 -9 58 -27 155 -40 215 -18 81 -27 167 -35 325 -10 216 -18 287 -44
435 -8 44 -20 112 -27 150 -20 119 -44 162 -111 196 -35 18 -78 21 -139 12z
m38 -106 c58 -86 75 -137 84 -246 6 -87 5 -116 -9 -160 -16 -52 -55 -104 -96
-127 -28 -15 -14 -44 22 -44 15 0 45 9 67 20 21 11 40 18 42 16 5 -4 29 -159
42 -264 11 -90 5 -118 -40 -174 -12 -14 -18 -31 -15 -37 9 -14 43 -14 51 -1 3
6 13 10 21 10 21 0 18 -85 -6 -155 -24 -70 -24 -69 -5 -61 19 7 19 6 -1 -45
-13 -32 -14 -43 -4 -49 9 -6 9 -13 1 -28 -14 -27 -14 -32 4 -32 11 0 8 -9 -10
-36 -44 -65 -30 -72 28 -16 31 29 36 32 26 12 -8 -14 -16 -27 -20 -30 -3 -3
-17 -21 -33 -42 -38 -51 -16 -57 33 -7 38 38 41 39 41 17 0 -16 -27 -53 -81
-111 -86 -93 -85 -115 3 -43 49 41 64 56 88 96 14 23 22 5 9 -23 -7 -15 -47
-56 -90 -92 -74 -62 -93 -85 -69 -85 6 0 23 8 38 18 27 17 27 17 -6 -28 -18
-25 -74 -95 -125 -157 l-92 -112 -6 32 c-4 18 -12 106 -19 197 -11 150 -10
183 9 370 35 343 35 314 4 435 l-28 110 0 380 c1 373 1 381 23 430 22 47 65
94 87 95 6 0 20 -15 32 -33z m1873 -737 c49 -26 45 -112 -14 -348 -60 -239
-92 -297 -165 -294 -31 1 -41 -2 -41 -14 0 -18 44 -61 72 -70 11 -3 18 -11 15
-17 -2 -7 -17 -58 -32 -114 -31 -111 -37 -119 -115 -146 -49 -16 -63 -36 -31
-44 12 -3 21 -9 21 -13 0 -5 14 -11 30 -15 35 -8 38 -16 10 -33 -24 -15 -26
-42 -3 -42 14 0 14 -2 -3 -21 -14 -15 -15 -22 -6 -28 9 -5 7 -12 -8 -26 -24
-21 -26 -35 -5 -35 19 0 19 -4 0 -41 -15 -29 -56 -181 -71 -264 -5 -26 -9 -33
-11 -20 -16 80 -44 110 -57 63 -3 -13 -6 -87 -6 -165 0 -159 -21 -288 -69
-432 -42 -124 -69 -179 -90 -186 -11 -3 -25 -13 -33 -22 -11 -15 -10 -16 10
-11 29 8 28 -8 -3 -55 -31 -45 -71 -53 -107 -20 -30 27 -23 -16 8 -48 32 -34
24 -53 -19 -44 -40 9 -97 46 -97 63 0 7 -4 11 -10 7 -20 -12 14 -64 65 -97
l30 -20 -48 6 c-69 8 -103 32 -145 100 -43 72 -54 59 -18 -20 15 -32 24 -59
22 -62 -3 -2 -18 5 -35 17 -33 24 -64 69 -86 127 l-15 39 6 -40 c3 -22 15 -56
26 -75 11 -19 14 -29 7 -22 -28 27 -28 9 0 -45 56 -111 95 -138 198 -136 42 0
80 6 88 13 23 19 25 11 15 -60 -5 -36 -8 -74 -7 -84 3 -35 -112 -48 -358 -42
-241 6 -356 19 -435 47 -30 11 -75 28 -100 37 -25 8 -62 26 -82 38 l-37 23 -3
91 c-2 49 -2 90 0 90 2 0 24 -14 50 -32 112 -77 234 -117 261 -84 18 22 3 39
-57 61 -78 29 -144 65 -196 106 -56 45 -55 47 5 19 93 -42 111 -11 19 34 -33
16 -69 39 -81 52 -21 22 -21 22 27 -2 51 -26 104 -32 104 -11 0 6 -29 27 -64
45 -35 18 -81 49 -102 68 l-39 35 43 -21 c43 -21 97 -24 97 -6 0 5 -13 13 -30
18 -55 17 -105 41 -105 51 0 5 11 6 24 3 41 -10 39 12 -2 33 -56 29 -142 99
-142 117 0 11 11 6 39 -16 22 -18 47 -30 56 -28 12 2 -5 22 -59 71 -42 38 -76
75 -76 83 0 20 8 18 43 -12 48 -41 47 -8 -2 37 l-41 39 0 142 c0 78 3 139 6
136 5 -6 40 -124 66 -225 12 -44 33 -57 45 -26 8 19 -10 186 -32 298 -8 44
-16 108 -16 143 -1 58 1 65 37 108 141 166 192 235 284 379 36 57 86 130 112
164 l48 61 55 0 c36 0 70 -7 94 -20 21 -10 65 -24 97 -29 114 -19 306 -80 301
-96 -5 -13 -37 -11 -115 9 -46 12 -68 14 -82 6 -71 -38 68 -109 181 -93 52 8
54 10 60 43 4 28 7 31 14 17 7 -18 1 -94 -9 -104 -14 -15 -131 -33 -211 -33
-63 0 -108 6 -149 20 -62 21 -166 27 -166 10 0 -13 79 -70 97 -70 20 0 17 -6
-31 -69 -50 -65 -116 -180 -116 -203 0 -8 -18 -49 -40 -90 -41 -79 -70 -198
-56 -234 7 -19 8 -19 21 0 8 10 21 50 30 88 9 39 23 85 33 102 l16 31 7 -75
c11 -119 31 -151 110 -174 48 -14 51 -18 74 -96 23 -76 58 -144 78 -148 26 -5
21 25 -18 127 -19 49 -35 93 -35 96 0 3 8 5 17 5 9 0 27 9 39 21 21 20 24 20
68 5 26 -9 76 -16 113 -16 63 0 67 2 101 38 64 67 132 194 132 245 0 9 2 17 5
17 3 0 30 -25 60 -55 45 -46 59 -55 89 -55 20 0 36 3 36 6 0 4 -33 42 -74 84
-64 68 -75 85 -81 125 -4 25 -2 72 4 103 6 31 12 68 13 82 2 19 9 25 28 26
100 3 162 49 221 165 21 44 45 105 53 137 7 31 22 75 33 97 11 22 26 57 32 78
7 20 16 37 21 37 10 0 51 104 75 190 9 36 28 101 40 145 13 44 26 94 30 111
11 57 76 90 125 64z m-1063 -389 c16 -16 35 -47 41 -68 17 -55 16 -213 0 -213
-29 0 -158 33 -216 56 -34 13 -71 24 -82 24 -25 0 -25 6 1 93 26 86 48 113
103 126 82 18 122 14 153 -18z m343 -216 c18 -19 39 -59 54 -105 13 -41 34
-102 46 -135 47 -132 47 -135 3 -119 -22 7 -28 17 -30 44 -2 19 -8 39 -13 44
-18 18 -32 -10 -40 -85 -30 -263 -77 -487 -108 -508 -4 -3 -19 -22 -32 -41
-45 -66 -58 -72 -136 -68 -46 2 -76 8 -86 19 -22 21 -20 118 3 204 43 158 69
277 63 286 -3 6 -13 9 -21 7 -11 -2 -22 -36 -39 -118 -13 -63 -32 -144 -43
-180 -10 -36 -27 -101 -37 -145 -19 -80 -19 -80 -54 -83 -49 -5 -107 15 -126
42 -8 13 -20 66 -25 118 l-10 93 47 85 c25 47 65 111 88 144 l41 58 130 3
c237 6 303 41 312 169 6 91 -5 105 -112 143 -50 17 -94 33 -100 35 -10 5 40
108 59 121 6 4 39 6 74 4 54 -3 67 -7 92 -32z"/>
<path d="M2995 2071 c8 -22 16 -69 19 -103 4 -43 3 -55 -3 -38 -7 18 -9 2 -10
-60 -1 -66 -6 -92 -21 -117 -10 -18 -15 -35 -11 -38 17 -10 45 52 51 115 l7
65 3 -50 2 -50 11 44 c16 67 -20 258 -51 269 -8 2 -7 -9 3 -37z"/>
<path d="M2935 1773 c-15 -101 -30 -150 -53 -181 -26 -34 -24 -54 3 -32 34 29
58 94 63 173 5 80 -3 104 -13 40z"/>
<path d="M3020 1572 c0 -63 65 -222 91 -222 12 0 12 0 -12 50 -28 57 -59 148
-59 171 0 10 -4 21 -10 24 -6 4 -10 -6 -10 -23z"/>
<path d="M2908 2554 c-32 -17 -40 -67 -12 -78 68 -26 156 38 112 82 -16 16
-67 14 -100 -4z"/>
<path d="M3147 2550 c-30 -24 -34 -42 -12 -60 12 -10 24 -10 61 1 56 17 73 34
53 53 -27 26 -73 29 -102 6z"/>
<path d="M4627 4789 c-30 -30 -29 -49 3 -49 21 0 50 36 50 62 0 25 -20 20 -53
-13z"/>
<path d="M3601 4773 c-37 -45 -59 -105 -67 -188 -6 -55 -4 -65 15 -84 17 -17
26 -19 40 -11 15 8 22 5 35 -15 11 -17 26 -25 46 -25 34 0 82 17 91 32 4 6 16
-7 28 -30 25 -48 64 -72 120 -72 44 0 71 26 71 68 0 26 4 25 -74 6 -56 -14
-87 87 -52 170 30 73 116 117 116 60 0 -23 2 -25 16 -14 9 8 14 25 12 44 -3
29 -5 31 -52 34 -47 3 -50 1 -97 -47 -39 -41 -49 -47 -49 -31 0 35 -39 100
-73 120 -51 32 -90 26 -126 -17z m109 -42 c38 -37 45 -70 31 -139 -11 -58 -30
-82 -63 -82 -22 0 -32 23 -47 106 -11 62 -5 100 21 131 16 19 26 16 58 -16z"/>
<path d="M4765 4768 c-26 -15 -65 -60 -65 -75 0 -30 26 -22 67 20 25 25 42 50
39 56 -9 14 -16 13 -41 -1z"/>
<path d="M4115 4688 c-3 -7 -25 -80 -49 -162 -35 -114 -43 -154 -35 -168 6
-12 17 -17 26 -14 8 3 16 6 18 6 2 0 12 35 21 78 l18 78 40 -1 c38 -1 41 -4
72 -60 49 -89 84 -196 86 -265 2 -68 15 -88 47 -70 54 28 5 206 -106 378 l-34
53 41 49 c22 26 40 55 40 64 0 28 -27 17 -60 -24 -18 -22 -52 -54 -77 -71
l-45 -31 6 28 c14 76 18 144 7 144 -6 0 -14 -6 -16 -12z"/>
<path d="M4978 4426 c-49 -15 -55 -23 -25 -37 29 -13 82 6 82 30 0 19 -13 21
-57 7z"/>
<path d="M2741 4261 c-6 -11 -16 -55 -22 -98 -6 -43 -13 -84 -15 -92 -3 -8 -6
-56 -9 -108 -3 -72 -1 -93 9 -93 24 0 36 26 43 96 l8 69 45 -3 c25 -2 48 -7
51 -10 4 -4 19 -44 34 -89 24 -74 29 -83 51 -83 40 0 32 34 -54 240 -78 188
-76 185 -104 188 -19 2 -30 -3 -37 -17z m62 -103 c8 -24 18 -50 22 -59 5 -13
-1 -18 -25 -21 -17 -3 -33 -1 -36 4 -8 12 7 118 16 118 5 0 15 -19 23 -42z"/>
<path d="M3014 4214 c13 -123 38 -258 52 -281 21 -34 50 -29 63 10 7 17 16 88
21 157 13 170 14 160 -14 160 -20 0 -24 -6 -30 -46 -3 -26 -6 -77 -6 -115 0
-37 -4 -70 -8 -73 -5 -3 -15 27 -22 67 -24 136 -36 181 -49 185 -11 4 -12 -10
-7 -64z"/>
<path d="M3243 4224 c-16 -25 -42 -154 -44 -224 -3 -60 11 -78 64 -87 43 -7
93 11 108 39 16 30 -5 47 -29 25 -11 -10 -35 -17 -60 -17 l-42 0 0 54 0 54 60
-5 c49 -5 60 -3 60 9 0 18 -29 28 -78 28 l-33 0 7 48 c3 26 9 49 11 52 3 3 35
5 71 5 53 0 67 3 67 15 0 12 -17 16 -74 20 -67 5 -75 3 -88 -16z"/>
<path d="M3511 4155 c-30 -71 -60 -181 -61 -223 0 -26 4 -33 17 -30 10 2 21
17 26 34 10 33 53 62 69 46 4 -4 12 -35 16 -68 5 -42 11 -59 22 -59 19 0 16
82 -5 131 -12 29 -11 33 21 74 24 30 34 53 34 77 0 58 -14 73 -68 73 l-47 0
-24 -55z m99 -11 c0 -28 -9 -44 -46 -82 -28 -28 -43 -39 -39 -27 3 11 13 44
21 74 7 30 20 58 26 63 27 16 38 8 38 -28z"/>
<path d="M3783 4158 c-17 -23 -32 -72 -48 -161 -9 -48 -20 -99 -25 -112 -6
-16 -5 -27 4 -34 13 -11 45 -5 47 8 0 3 8 38 18 76 20 77 21 76 48 -40 13 -59
23 -81 36 -83 28 -5 31 24 12 116 -10 48 -23 116 -29 152 -12 71 -20 90 -40
90 -8 0 -18 -6 -23 -12z"/>
<path d="M3949 4143 c-15 -17 -26 -210 -14 -240 20 -53 89 178 70 236 -8 25
-37 27 -56 4z"/>
<path d="M5138 4129 c-26 -19 -39 -59 -19 -59 13 0 71 56 71 69 0 17 -22 13
-52 -10z"/>
<path d="M1015 4023 c-21 -43 -59 -134 -85 -203 -43 -111 -51 -125 -77 -132
-15 -5 -36 -6 -46 -4 -22 5 -35 -23 -16 -35 8 -5 26 -9 42 -9 32 0 31 4 8 -85
l-19 -70 -48 0 c-39 0 -49 -4 -52 -19 -3 -16 2 -18 42 -15 25 2 46 2 46 -1 0
-3 -12 -70 -26 -150 -32 -179 -43 -467 -25 -641 11 -100 10 -115 -3 -125 -9
-6 -16 -15 -16 -21 0 -5 -21 -19 -46 -31 -26 -13 -44 -28 -41 -35 7 -19 66
-11 99 13 16 12 31 20 32 18 1 -1 10 -43 20 -92 22 -108 83 -303 132 -420 26
-62 49 -99 86 -136 28 -28 52 -49 55 -47 2 3 -13 40 -35 83 -97 194 -184 475
-219 713 -23 157 -23 473 0 631 23 158 76 361 146 566 54 156 96 312 86 322
-2 2 -20 -31 -40 -75z"/>
<path d="M5257 3931 c-37 -3 -67 -9 -67 -13 0 -5 0 -12 0 -17 0 -5 18 -12 39
-16 45 -7 111 17 111 41 0 8 -3 13 -7 12 -5 -1 -38 -4 -76 -7z"/>
<path d="M5332 3701 c-31 -28 -41 -55 -23 -65 4 -3 18 5 31 19 12 13 35 29 51
36 35 14 33 33 -3 37 -17 2 -35 -7 -56 -27z"/>
<path d="M697 2233 c-30 -5 -47 -30 -28 -42 15 -9 111 5 124 18 25 25 -17 36
-96 24z"/>
<path d="M5130 1894 c0 -26 65 -84 94 -84 35 0 34 25 -2 44 -15 8 -36 23 -46
35 -23 25 -46 27 -46 5z"/>
<path d="M5005 1759 c-37 -69 -123 -194 -204 -298 -151 -195 -398 -413 -626
-554 -68 -41 -148 -127 -119 -127 27 0 290 171 403 262 203 164 365 340 508
553 22 33 79 202 71 210 -3 3 -17 -18 -33 -46z"/>
<path d="M1407 1178 c-3 -24 -9 -58 -12 -75 -4 -19 -3 -33 2 -33 18 0 45 38
53 75 10 46 2 75 -20 75 -14 0 -19 -10 -23 -42z"/>
<path d="M1558 962 c-21 -19 -29 -34 -25 -45 6 -15 13 -13 52 15 25 17 45 38
45 45 0 22 -38 14 -72 -15z"/>
<path d="M2836 928 c-4 -9 -6 -31 -4 -50 3 -33 3 -33 61 -36 52 -3 57 -5 57
-26 0 -15 -7 -26 -20 -29 -26 -7 -26 -34 1 -42 20 -7 20 -8 3 -27 -16 -16 -16
-21 -4 -29 13 -8 12 -11 -3 -20 -15 -9 -16 -13 -5 -26 7 -9 13 -44 13 -87 0
-96 18 -100 30 -6 9 67 12 75 33 78 31 5 25 34 -8 42 l-25 6 23 12 c25 14 29
32 8 32 -23 0 -31 22 -12 32 20 12 21 38 0 38 -10 0 -14 7 -12 23 3 21 7 22
71 19 l67 -4 0 51 c0 28 -4 51 -10 51 -10 0 -13 -9 -14 -50 -1 -23 -5 -25 -42
-24 -61 1 -74 9 -74 46 0 25 -3 29 -10 18 -5 -8 -10 -25 -10 -38 0 -21 -4 -23
-47 -20 -48 3 -48 3 -54 43 -4 29 -8 35 -13 23z"/>
<path d="M2607 702 c-22 -24 -22 -78 -1 -86 9 -3 29 -6 45 -6 29 0 41 -22 19
-35 -6 -4 -8 -11 -4 -16 4 -6 11 -6 20 2 27 22 28 -1 2 -28 l-26 -26 -52 38
c-28 20 -54 35 -57 31 -9 -8 45 -64 69 -72 10 -3 18 -12 18 -20 0 -22 22 -16
60 16 19 17 38 30 42 30 4 0 8 -16 8 -35 0 -38 17 -48 22 -14 l3 21 24 -21
c34 -29 47 -26 22 5 -27 34 -26 40 4 48 14 4 23 11 20 16 -3 5 -18 5 -37 -1
-46 -13 -59 6 -20 28 44 25 48 46 17 87 -30 39 -50 50 -71 38 -12 -7 -7 -17
27 -49 l42 -41 -33 -17 c-33 -17 -52 -13 -32 7 20 20 14 31 -12 24 -23 -6 -24
-4 -19 27 6 37 -6 51 -53 61 -23 5 -34 2 -47 -12z m71 -31 c3 -8 -1 -12 -9 -9
-7 2 -15 10 -17 17 -3 8 1 12 9 9 7 -2 15 -10 17 -17z m-38 -26 c0 -8 -4 -15
-10 -15 -5 0 -10 7 -10 15 0 8 5 15 10 15 6 0 10 -7 10 -15z"/>
<path d="M3122 675 c-17 -37 -15 -52 8 -68 13 -9 18 -20 14 -31 -9 -23 -31
-20 -37 5 -3 12 -10 18 -16 14 -14 -8 -14 -38 0 -52 9 -9 6 -20 -10 -46 -24
-40 -26 -47 -8 -47 6 0 22 16 35 35 18 29 28 35 57 35 19 0 35 5 35 10 0 6
-11 10 -25 10 -23 0 -24 2 -13 20 8 13 19 18 28 14 55 -24 110 -6 110 38 0 22
-8 23 -32 1 -15 -13 -23 -14 -44 -4 -14 6 -24 17 -21 24 3 6 8 20 12 30 11 27
-10 20 -25 -8 -19 -36 -46 -28 -42 13 3 38 -10 42 -26 7z"/>
<path d="M3635 630 c-3 -5 1 -10 9 -10 8 0 18 5 21 10 3 6 -1 10 -9 10 -8 0
-18 -4 -21 -10z"/>
<path d="M3962 588 c-8 -8 -8 -17 -1 -30 14 -26 29 -22 29 6 0 29 -12 40 -28
24z"/>
</g>
</svg>
